:SAMPLES-PER-SECOND 30
:FULLY-SPECIFIED
:DEGREES
1111
root  -26.3154 39.0166 7.28096 -151.926 88.349 -146.079
RightUpLeg  17.6268 -8.36325 0.0897307
RightLeg  10.0281 6.73313 1.77503
RightFoot  -17.964 -0.271744 -2.6023
RightToes  5.82063e-011 0 -3.6325e-017
Spine  -0.141297 0.163828 8.24368
Spine1  15.6334 1.54028 -4.04849
HEad  -11.1269 1.18623 -6.82193
LeftShoulder1  -0.427813 4.64593 -31.322
LeftArm  -17.3878 7.21983 -32.087
LeftForeArm  99.718 -77.2518 -120.577
LeftHand  -0.0495055 1.65039 1.30795
RightShoulder  -0.611827 -5.29123 27.4788
RightArm  -13.7333 -12.3542 36.4634
RightForeArm  121.667 67.9409 150.141
RightHand  -0.0735806 -0.951495 -1.9337
LeftUpLeg  -14.4678 6.85618 0.306359
LeftLeg  8.49658 4.93767 -0.376567
LeftFoot  8.44041 -0.616118 3.37487
LeftToes  1.54581e-011 7.46816e-011 -4.69922e-011
1112
root  -25.3417 38.8661 7.1502 177.845 88.2112 -176.301
RightUpLeg  18.6911 -8.76614 -1.28577
RightLeg  11.4013 7.06155 1.64934
RightFoot  -19.0501 -0.234025 -1.57886
RightToes  5.82063e-011 0 -3.6325e-017
Spine  -0.225745 0.0870479 6.33509
Spine1  15.6853 1.41861 -3.75392
HEad  -11.5197 0.910974 -6.53302
LeftShoulder1  -0.425594 4.64151 -31.2741
LeftArm  -17.1856 7.12141 -32.3126
LeftForeArm  99.1391 -77.373 -119.713
LeftHand  -0.0523688 2.05167 1.46258
RightShoulder  -0.693008 -5.49705 28.0943
RightArm  -13.6985 -12.4072 36.179
RightForeArm  120.274 68.1295 149.711
RightHand  -0.109951 -2.4499 -3.82973
LeftUpLeg  -15.5993 7.33875 -1.45498
LeftLeg  13.3797 3.7224 0.821481
LeftFoot  7.23008 -0.983232 5.7278
LeftToes  1.54581e-011 7.46816e-011 -4.69922e-011
1113
root  -24.3524 38.7522 7.02349 157.495 87.3811 163.469
RightUpLeg  19.5153 -9.2385 -2.72255
RightLeg  13.5944 7.28121 1.80715
RightFoot  -19.6652 -0.112376 0.294247
RightToes  5.82063e-011 0 -3.6325e-017
Spine  -0.056641 -0.0088326 4.25795
Spine1  15.5689 1.13439 -2.92764
HEad  -11.899 1.09632 -6.48492
LeftShoulder1  -0.399886 4.56173 -31.6587
LeftArm  -16.9149 6.93026 -32.2421
LeftForeArm  97.0734 -77.6061 -117.684
LeftHand  -0.0482758 1.96823 1.29796
RightShoulder  -0.633522 -5.33571 27.8685
RightArm  -14.0391 -13.4695 36.7407
RightForeArm  121.387 68.3583 149.496
RightHand  -0.0729156 -1.78914 -2.04064
LeftUpLeg  -15.8771 6.43475 -2.66553
LeftLeg  17.3192 3.87548 1.73204
LeftFoot  4.49825 -0.841072 5.85346
LeftToes  1.54581e-011 7.46816e-011 -4.69922e-011
1114
root  -23.4113 38.7957 6.81483 136.59 87.4307 142.764
RightUpLeg  20.1193 -9.05131 -4.5999
RightLeg  15.8579 8.75281 2.52449
RightFoot  -18.9643 0.0574141 2.81138
RightToes  5.82063e-011 0 -3.6325e-017
Spine  0.420619 0.348392 3.94442
Spine1  15.4321 1.8802 -4.39708
HEad  -12.0202 1.04748 -6.57141
LeftShoulder1  -0.408312 4.58855 -31.492
LeftArm  -16.2793 6.64543 -32.4023
LeftForeArm  95.3096 -77.8275 -115.687
LeftHand  -0.0421915 2.0923 1.109
RightShoulder  -0.646285 -5.36043 28.1019
RightArm  -13.9241 -14.564 36.2901
RightForeArm  120.88 68.3034 149.519
RightHand  -0.0979593 -1.45976 -2.69623
LeftUpLeg  -14.6827 5.74412 -3.5079
LeftLeg  18.7373 5.26772 2.31186
LeftFoot  2.62098 -0.847488 6.77988
LeftToes  1.54581e-011 7.46816e-011 -4.69922e-011
1115
root  -22.5009 38.9048 6.57471 103.56 87.5201 109.404
RightUpLeg  18.9524 -7.41979 -6.12022
RightLeg  19.7282 9.69627 3.62207
RightFoot  -17.3071 0.206585 6.23548
RightToes  5.82063e-011 0 -3.6325e-017
Spine  0.327733 0.873034 3.39141
Spine1  15.315 2.58604 -5.49911
HEad  -11.4398 1.4557 -6.53116
LeftShoulder1  -0.477068 4.76163 -31.7904
LeftArm  -15.7586 7.23986 -32.0893
LeftForeArm  96.3422 -77.7201 -116.726
LeftHand  -0.0570539 2.08346 1.65259
RightShoulder  -0.639528 -5.34971 27.934
RightArm  -13.3643 -14.3643 35.7632
RightForeArm  119.673 68.9492 148.382
RightHand  -0.0799138 -1.67693 -2.24332
LeftUpLeg  -13.4141 5.8041 -4.48568
LeftLeg  18.8374 6.36486 2.73936
LeftFoot  1.20405 -0.818995 7.36726
LeftToes  1.54581e-011 7.46816e-011 -4.69922e-011
1116
root  -21.68 38.9471 6.36848 84.0363 87.0037 89.6007
RightUpLeg  15.9874 -6.29918 -7.49355
RightLeg  26.7348 10.2685 5.37989
RightFoot  -14.847 0.217186 10.572
RightToes  5.82063e-011 0 -3.6325e-017
Spine  0.80572 1.17727 2.06328
Spine1  14.7225 2.64146 -5.53719
HEad  -11.9773 1.20964 -8.33221
LeftShoulder1  -0.454293 4.70255 -31.7572
LeftArm  -15.7945 8.45171 -31.8569
LeftForeArm  98.1316 -77.5402 -118.418
LeftHand  -0.0454553 1.84551 1.18831
RightShoulder  -0.616344 -5.28768 27.8228
RightArm  -12.4819 -13.6773 35.161
RightForeArm  118.963 69.5669 147.285
RightHand  -0.0704995 -1.93638 -2.11014
LeftUpLeg  -12.4906 5.74395 -5.29145
LeftLeg  19.3614 7.39533 3.18014
LeftFoot  -0.402495 -0.71296 7.46134
LeftToes  1.54581e-011 7.46816e-011 -4.69922e-011
1117
root  -20.8896 38.9655 6.16897 70.1357 86.3888 75.5063
RightUpLeg  11.6122 -5.48553 -8.82479
RightLeg  35.6576 10.0102 7.38024
RightFoot  -10.2978 -0.199054 13.9422
RightToes  5.82063e-011 0 -3.6325e-017
Spine  1.39114 1.43254 1.20056
Spine1  14.3775 2.76276 -5.73726
HEad  -12.8297 1.17046 -8.91373
LeftShoulder1  -0.467608 4.73926 -31.7091
LeftArm  -15.7466 8.70069 -31.6371
LeftForeArm  98.5681 -77.453 -119.076
LeftHand  -0.0567678 2.15221 1.65085
RightShoulder  -0.597787 -5.23282 27.8297
RightArm  -12.0492 -12.8772 34.7029
RightForeArm  118.39 69.6948 146.994
RightHand  -0.0670994 -2.98183 -2.54
LeftUpLeg  -11.5946 5.94329 -5.89693
LeftLeg  20.0099 8.17453 3.51709
LeftFoot  -1.96279 -0.614075 7.61934
LeftToes  1.54581e-011 7.46816e-011 -4.69922e-011
1118
root  -20.1896 38.9528 6.00966 55.8091 85.4752 61.0048
RightUpLeg  5.95245 -3.70955 -9.44946
RightLeg  45.264 7.97604 8.21325
RightFoot  -4.28775 -0.900074 14.3161
RightToes  5.82063e-011 0 -3.6325e-017
Spine  2.28273 1.80682 0.167813
Spine1  13.8738 2.94311 -5.89298
HEad  -13.751 1.75125 -8.9415
LeftShoulder1  -0.437968 4.67106 -31.3805
LeftArm  -15.9171 8.92417 -31.364
LeftForeArm  98.7513 -77.414 -119.362
LeftHand  -0.0513962 1.94304 1.3878
RightShoulder  -0.601791 -5.24165 27.8868
RightArm  -11.7147 -12.1373 34.5068
RightForeArm  118.181 69.8557 146.688
RightHand  -0.0735421 -1.91167 -2.08496
LeftUpLeg  -10.836 6.74417 -6.38057
LeftLeg  20.665 8.84688 3.73786
LeftFoot  -3.5712 -0.495816 7.59796
LeftToes  1.54581e-011 7.46816e-011 -4.69922e-011
1119
root  -19.5341 38.944 5.8842 48.8148 85.0642 54.0138
RightUpLeg  0.808574 -2.64385 -9.42816
RightLeg  53.4468 5.13721 7.00425
RightFoot  -1.86897 -1.02558 12.104
RightToes  5.82063e-011 0 -3.6325e-017
Spine  3.03138 1.8764 -0.803521
Spine1  13.6922 2.6903 -5.50909
HEad  -14.5564 2.11632 -8.88147
LeftShoulder1  -0.34784 4.4365 -31.1532
LeftArm  -16.399 8.93472 -31.3924
LeftForeArm  98.0152 -77.4535 -118.912
LeftHand  -0.0731972 1.43501 1.9629
RightShoulder  -0.582197 -5.18527 27.8611
RightArm  -11.4553 -11.0847 35.1711
RightForeArm  117.086 70.1534 146.017
RightHand  -0.10988 -1.24652 -2.96663
LeftUpLeg  -9.98938 7.39597 -6.39367
LeftLeg  21.3161 9.00687 3.78067
LeftFoot  -5.11022 -0.372793 7.41229
LeftToes  1.54581e-011 7.46816e-011 -4.69922e-011
1120
root  -18.8253 39.0219 5.75799 47.9068 85.5783 53.4013
RightUpLeg  -3.36986 -2.7788 -9.10162
RightLeg  59.7096 2.58345 4.31755
RightFoot  -3.69599 -0.736119 10.5891
RightToes  5.82063e-011 0 -3.6325e-017
Spine  3.72418 1.46894 -1.12992
Spine1  13.657 2.06393 -4.94807
HEad  -14.8158 2.00803 -8.65564
LeftShoulder1  -0.282421 4.26957 -30.7542
LeftArm  -16.9758 8.4596 -31.7806
LeftForeArm  96.3424 -77.6292 -117.316
LeftHand  -0.0731407 1.89013 2.12414
RightShoulder  -0.656015 -5.38157 28.2349
RightArm  -11.3855 -9.95115 35.6072
RightForeArm  116.408 70.5885 145.123
RightHand  -0.0986093 -2.04272 -3.12625
LeftUpLeg  -8.36006 7.65599 -5.98275
LeftLeg  21.1558 8.70777 3.56626
LeftFoot  -6.15879 -0.305029 7.54765
LeftToes  1.54581e-011 7.46816e-011 -4.69922e-011
